<?xml version="1.0" encoding="UTF-8"?>
<svg xmlns="http://www.w3.org/2000/svg" width="192" height="192" viewBox="0 0 192 192" role="img" aria-labelledby="title desc">
  <title id="title">Icono de Aconser Fichajes</title>
  <desc id="desc">Letra A estilizada en un círculo azul que representa la marca Aconser Fichajes</desc>
  <defs>
    <linearGradient id="gradient" x1="0%" y1="0%" x2="100%" y2="100%">
      <stop offset="0%" stop-color="#0052A5" />
      <stop offset="100%" stop-color="#0091D5" />
    </linearGradient>
  </defs>
  <circle cx="96" cy="96" r="88" fill="url(#gradient)" />
  <path d="M96 44c-4.2 0-7.9 2.5-9.5 6.4l-38 94.7a10.5 10.5 0 0 0 9.5 14.6h15.8a10.5 10.5 0 0 0 9.7-6.7l5.7-15.3h31.6l5.7 15.3a10.5 10.5 0 0 0 9.7 6.7h15.8a10.5 10.5 0 0 0 9.5-14.6l-38-94.7c-1.6-3.9-5.3-6.4-9.5-6.4zm0 36.4 11.4 30.2H84.6z" fill="#ffffff"/>
</svg>
